# xmcd
#
# Track frame offsets:
#	150
#	12861
#	25303
#	39169
#	51769
#	64224
#	75280
#	85659
#	98595
#	109955
#	121539
#	133920
#	148874
#	161276
#	175628
#	189227
#	199981
#	226257
#
# Disc length: 3020 seconds
#
# Revision: 0
# Processed by: cddbd v1.5.2PL0 Copyright (c) Steve Scherf et al.
# Submitted via: audiograbber 1.83.01
#
DISCID=d90bca12
DTITLE=Chartbuster - 5030-02
DYEAR=2005
DGENRE=Karaoke
TTITLE0=Marty Robbins - Singing The blues
TTITLE1=Webb Piecrce - There Stands The Glass
TTITLE2=Leroy Van Dyke - Auctioneer
TTITLE3=Ray Price - Crazy arms
TTITLE4=Goldie Hill - I Let The stars Get In My eyes
TTITLE5=Webb Pierce - I Don't Care
TTITLE6=Faron Young - Alone With you
TTITLE7=Jim Reeves - Am I Losing You
TTITLE8=The Browns - Looking Back To See
TTITLE9=Webb Pierce - Slowly
TTITLE10=Don Gibson - Oh, Lonesome Me
TTITLE11=Ray Price - City Lights
TTITLE12=Johnny Cash - I Walk The Line
TTITLE13=Webb Pierce - Wondering
TTITLE14=Jean Shepard - A Satisfide Mind
TTITLE15=Jim Reeves - He'll Have To Go
TTITLE16=Claude King - Wolverton Mountian
TTITLE17=Data  - Track 
EXTD=
EXTT0=
EXTT1=
EXTT2=
EXTT3=
EXTT4=
EXTT5=
EXTT6=
EXTT7=
EXTT8=
EXTT9=
EXTT10=
EXTT11=
EXTT12=
EXTT13=
EXTT14=
EXTT15=
EXTT16=
EXTT17=
PLAYORDER=
